<svg width="24" height="24" viewBox="0 0 24 24" fill="none" xmlns="http://www.w3.org/2000/svg">
<path d="M12 0C5.373 0 0 5.373 0 12C0 18.627 5.373 24 12 24C18.627 24 24 18.627 24 12C23.996 5.374 18.626 0.004 12 0ZM12 22.88C5.991 22.88 1.12 18.009 1.12 12C1.12 5.991 5.991 1.12 12 1.12C18.009 1.12 22.88 5.991 22.88 12C22.874 18.006 18.006 22.874 12 22.88V22.88ZM16.954 4.506H16.133V8.614H7.893V4.506H7.046C5.80618 5.32396 4.78867 6.43676 4.08466 7.74465C3.38065 9.05254 3.01213 10.5147 3.01213 12C3.01213 13.4853 3.38065 14.9475 4.08466 16.2554C4.78867 17.5632 5.80618 18.676 7.046 19.494H7.892V15.386H16.132V19.494H16.954C18.1938 18.676 19.2113 17.5632 19.9153 16.2554C20.6193 14.9475 20.9879 13.4853 20.9879 12C20.9879 10.5147 20.6193 9.05254 19.9153 7.74465C19.2113 6.43676 18.1938 5.32396 16.954 4.506V4.506ZM6.747 17.876C5.91695 17.1386 5.25256 16.2336 4.79758 15.2208C4.3426 14.208 4.10737 13.1103 4.10737 12C4.10737 10.8897 4.3426 9.79198 4.79758 8.77917C5.25256 7.76636 5.91695 6.86143 6.747 6.124V17.876ZM16.133 14.241H7.893V9.734H16.133V14.241V14.241ZM17.253 17.851V6.124C18.0758 6.86318 18.7339 7.76727 19.1843 8.77748C19.6348 9.78769 19.8676 10.8814 19.8676 11.9875C19.8676 13.0936 19.6348 14.1873 19.1843 15.1975C18.7339 16.2077 18.0758 17.1118 17.253 17.851V17.851Z" fill="white"/>
</svg>
